<svg width="205" height="194" viewBox="0 0 205 194" fill="none" xmlns="http://www.w3.org/2000/svg">
<path d="M205 0.0243144C205 0.0243144 126.69 -3.56424 64.985 76.4507C17.63 137.844 0 194 0 194L19.885 184.301C34.645 160.054 42.3325 150.065 56.785 135.807C82.7175 142.984 109.778 142.112 133.25 116.41C112.75 110.978 96.35 112.239 72.16 114.567C99.3225 97.0122 117.875 93.1327 143.5 97.0122L153.75 77.6146C135.3 74.317 123 74.026 104.755 78.0025C124.948 64.5212 138.99 56.9562 164 58.217L176.402 39.4984C160.412 38.4315 150.778 40.0803 132.43 44.3478C148.933 30.1875 164 23.7863 185.935 22.5255C185.935 22.5255 196.697 4.19479 205 0.0243144V0.0243144Z" fill="black"/>
</svg>
